<svg xmlns="http://www.w3.org/2000/svg" width="792" height="178" viewBox="0 0 792 178" role="img" aria-label="360 GitHub contributions in the last year">
<style>text{font-family:Monaco,Consolas,"Liberation Mono",monospace;fill:#8996ad}.hd{fill:#e4ecf9;font-size:11px}.mo{font-size:8px}.dy{font-size:8px}.lg{font-size:8px}</style>
<rect width="792" height="178" fill="none"/>
<text class="hd" x="0" y="12">360 contributions in the last year</text>
<text class="mo" x="34" y="28">Aug</text>
<text class="mo" x="62" y="28">Sep</text>
<text class="mo" x="118" y="28">Oct</text>
<text class="mo" x="174" y="28">Nov</text>
<text class="mo" x="244" y="28">Dec</text>
<text class="mo" x="300" y="28">Jan</text>
<text class="mo" x="356" y="28">Feb</text>
<text class="mo" x="412" y="28">Mar</text>
<text class="mo" x="482" y="28">Apr</text>
<text class="mo" x="538" y="28">May</text>
<text class="mo" x="608" y="28">Jun</text>
<text class="mo" x="664" y="28">Jul</text>
<text class="mo" x="720" y="28">Aug</text>
<text class="dy" x="0" y="57">Mon</text>
<text class="dy" x="0" y="85">Wed</text>
<text class="dy" x="0" y="113">Fri</text>
<rect x="34" y="34" width="11" height="11" rx="2" fill="#161b22"><title>2025-08-24: 0</title></rect>
<rect x="34" y="48" width="11" height="11" rx="2" fill="#161b22"><title>2025-08-25: 0</title></rect>
<rect x="34" y="62" width="11" height="11" rx="2" fill="#161b22"><title>2025-08-26: 0</title></rect>
<rect x="34" y="76" width="11" height="11" rx="2" fill="#161b22"><title>2025-08-27: 0</title></rect>
<rect x="34" y="90" width="11" height="11" rx="2" fill="#161b22"><title>2025-08-28: 0</title></rect>
<rect x="34" y="104" width="11" height="11" rx="2" fill="#161b22"><title>2025-08-29: 0</title></rect>
<rect x="34" y="118" width="11" height="11" rx="2" fill="#161b22"><title>2025-08-30: 0</title></rect>
<rect x="48" y="34" width="11" height="11" rx="2" fill="#161b22"><title>2025-08-31: 0</title></rect>
<rect x="48" y="48" width="11" height="11" rx="2" fill="#161b22"><title>2025-09-01: 0</title></rect>
<rect x="48" y="62" width="11" height="11" rx="2" fill="#161b22"><title>2025-09-02: 0</title></rect>
<rect x="48" y="76" width="11" height="11" rx="2" fill="#161b22"><title>2025-09-03: 0</title></rect>
<rect x="48" y="90" width="11" height="11" rx="2" fill="#161b22"><title>2025-09-04: 0</title></rect>
<rect x="48" y="104" width="11" height="11" rx="2" fill="#161b22"><title>2025-09-05: 0</title></rect>
<rect x="48" y="118" width="11" height="11" rx="2" fill="#161b22"><title>2025-09-06: 0</title></rect>
<rect x="62" y="34" width="11" height="11" rx="2" fill="#161b22"><title>2025-09-07: 0</title></rect>
<rect x="62" y="48" width="11" height="11" rx="2" fill="#161b22"><title>2025-09-08: 0</title></rect>
<rect x="62" y="62" width="11" height="11" rx="2" fill="#161b22"><title>2025-09-09: 0</title></rect>
<rect x="62" y="76" width="11" height="11" rx="2" fill="#161b22"><title>2025-09-10: 0</title></rect>
<rect x="62" y="90" width="11" height="11" rx="2" fill="#161b22"><title>2025-09-11: 0</title></rect>
<rect x="62" y="104" width="11" height="11" rx="2" fill="#161b22"><title>2025-09-12: 0</title></rect>
<rect x="62" y="118" width="11" height="11" rx="2" fill="#161b22"><title>2025-09-13: 0</title></rect>
<rect x="76" y="34" width="11" height="11" rx="2" fill="#161b22"><title>2025-09-14: 0</title></rect>
<rect x="76" y="48" width="11" height="11" rx="2" fill="#161b22"><title>2025-09-15: 0</title></rect>
<rect x="76" y="62" width="11" height="11" rx="2" fill="#161b22"><title>2025-09-16: 0</title></rect>
<rect x="76" y="76" width="11" height="11" rx="2" fill="#161b22"><title>2025-09-17: 0</title></rect>
<rect x="76" y="90" width="11" height="11" rx="2" fill="#161b22"><title>2025-09-18: 0</title></rect>
<rect x="76" y="104" width="11" height="11" rx="2" fill="#161b22"><title>2025-09-19: 0</title></rect>
<rect x="76" y="118" width="11" height="11" rx="2" fill="#161b22"><title>2025-09-20: 0</title></rect>
<rect x="90" y="34" width="11" height="11" rx="2" fill="#161b22"><title>2025-09-21: 0</title></rect>
<rect x="90" y="48" width="11" height="11" rx="2" fill="#161b22"><title>2025-09-22: 0</title></rect>
<rect x="90" y="62" width="11" height="11" rx="2" fill="#161b22"><title>2025-09-23: 0</title></rect>
<rect x="90" y="76" width="11" height="11" rx="2" fill="#161b22"><title>2025-09-24: 0</title></rect>
<rect x="90" y="90" width="11" height="11" rx="2" fill="#161b22"><title>2025-09-25: 0</title></rect>
<rect x="90" y="104" width="11" height="11" rx="2" fill="#161b22"><title>2025-09-26: 0</title></rect>
<rect x="90" y="118" width="11" height="11" rx="2" fill="#161b22"><title>2025-09-27: 0</title></rect>
<rect x="104" y="34" width="11" height="11" rx="2" fill="#161b22"><title>2025-09-28: 0</title></rect>
<rect x="104" y="48" width="11" height="11" rx="2" fill="#161b22"><title>2025-09-29: 0</title></rect>
<rect x="104" y="62" width="11" height="11" rx="2" fill="#161b22"><title>2025-09-30: 0</title></rect>
<rect x="104" y="76" width="11" height="11" rx="2" fill="#161b22"><title>2025-10-01: 0</title></rect>
<rect x="104" y="90" width="11" height="11" rx="2" fill="#161b22"><title>2025-10-02: 0</title></rect>
<rect x="104" y="104" width="11" height="11" rx="2" fill="#161b22"><title>2025-10-03: 0</title></rect>
<rect x="104" y="118" width="11" height="11" rx="2" fill="#161b22"><title>2025-10-04: 0</title></rect>
<rect x="118" y="34" width="11" height="11" rx="2" fill="#161b22"><title>2025-10-05: 0</title></rect>
<rect x="118" y="48" width="11" height="11" rx="2" fill="#161b22"><title>2025-10-06: 0</title></rect>
<rect x="118" y="62" width="11" height="11" rx="2" fill="#161b22"><title>2025-10-07: 0</title></rect>
<rect x="118" y="76" width="11" height="11" rx="2" fill="#161b22"><title>2025-10-08: 0</title></rect>
<rect x="118" y="90" width="11" height="11" rx="2" fill="#161b22"><title>2025-10-09: 0</title></rect>
<rect x="118" y="104" width="11" height="11" rx="2" fill="#161b22"><title>2025-10-10: 0</title></rect>
<rect x="118" y="118" width="11" height="11" rx="2" fill="#006d32"><title>2025-10-11: 13</title></rect>
<rect x="132" y="34" width="11" height="11" rx="2" fill="#161b22"><title>2025-10-12: 0</title></rect>
<rect x="132" y="48" width="11" height="11" rx="2" fill="#0e4429"><title>2025-10-13: 4</title></rect>
<rect x="132" y="62" width="11" height="11" rx="2" fill="#161b22"><title>2025-10-14: 0</title></rect>
<rect x="132" y="76" width="11" height="11" rx="2" fill="#161b22"><title>2025-10-15: 0</title></rect>
<rect x="132" y="90" width="11" height="11" rx="2" fill="#161b22"><title>2025-10-16: 0</title></rect>
<rect x="132" y="104" width="11" height="11" rx="2" fill="#161b22"><title>2025-10-17: 0</title></rect>
<rect x="132" y="118" width="11" height="11" rx="2" fill="#161b22"><title>2025-10-18: 0</title></rect>
<rect x="146" y="34" width="11" height="11" rx="2" fill="#161b22"><title>2025-10-19: 0</title></rect>
<rect x="146" y="48" width="11" height="11" rx="2" fill="#161b22"><title>2025-10-20: 0</title></rect>
<rect x="146" y="62" width="11" height="11" rx="2" fill="#161b22"><title>2025-10-21: 0</title></rect>
<rect x="146" y="76" width="11" height="11" rx="2" fill="#161b22"><title>2025-10-22: 0</title></rect>
<rect x="146" y="90" width="11" height="11" rx="2" fill="#161b22"><title>2025-10-23: 0</title></rect>
<rect x="146" y="104" width="11" height="11" rx="2" fill="#161b22"><title>2025-10-24: 0</title></rect>
<rect x="146" y="118" width="11" height="11" rx="2" fill="#161b22"><title>2025-10-25: 0</title></rect>
<rect x="160" y="34" width="11" height="11" rx="2" fill="#161b22"><title>2025-10-26: 0</title></rect>
<rect x="160" y="48" width="11" height="11" rx="2" fill="#161b22"><title>2025-10-27: 0</title></rect>
<rect x="160" y="62" width="11" height="11" rx="2" fill="#161b22"><title>2025-10-28: 0</title></rect>
<rect x="160" y="76" width="11" height="11" rx="2" fill="#161b22"><title>2025-10-29: 0</title></rect>
<rect x="160" y="90" width="11" height="11" rx="2" fill="#161b22"><title>2025-10-30: 0</title></rect>
<rect x="160" y="104" width="11" height="11" rx="2" fill="#161b22"><title>2025-10-31: 0</title></rect>
<rect x="160" y="118" width="11" height="11" rx="2" fill="#161b22"><title>2025-11-01: 0</title></rect>
<rect x="174" y="34" width="11" height="11" rx="2" fill="#161b22"><title>2025-11-02: 0</title></rect>
<rect x="174" y="48" width="11" height="11" rx="2" fill="#161b22"><title>2025-11-03: 0</title></rect>
<rect x="174" y="62" width="11" height="11" rx="2" fill="#161b22"><title>2025-11-04: 0</title></rect>
<rect x="174" y="76" width="11" height="11" rx="2" fill="#161b22"><title>2025-11-05: 0</title></rect>
<rect x="174" y="90" width="11" height="11" rx="2" fill="#161b22"><title>2025-11-06: 0</title></rect>
<rect x="174" y="104" width="11" height="11" rx="2" fill="#161b22"><title>2025-11-07: 0</title></rect>
<rect x="174" y="118" width="11" height="11" rx="2" fill="#161b22"><title>2025-11-08: 0</title></rect>
<rect x="188" y="34" width="11" height="11" rx="2" fill="#161b22"><title>2025-11-09: 0</title></rect>
<rect x="188" y="48" width="11" height="11" rx="2" fill="#161b22"><title>2025-11-10: 0</title></rect>
<rect x="188" y="62" width="11" height="11" rx="2" fill="#161b22"><title>2025-11-11: 0</title></rect>
<rect x="188" y="76" width="11" height="11" rx="2" fill="#161b22"><title>2025-11-12: 0</title></rect>
<rect x="188" y="90" width="11" height="11" rx="2" fill="#161b22"><title>2025-11-13: 0</title></rect>
<rect x="188" y="104" width="11" height="11" rx="2" fill="#161b22"><title>2025-11-14: 0</title></rect>
<rect x="188" y="118" width="11" height="11" rx="2" fill="#161b22"><title>2025-11-15: 0</title></rect>
<rect x="202" y="34" width="11" height="11" rx="2" fill="#161b22"><title>2025-11-16: 0</title></rect>
<rect x="202" y="48" width="11" height="11" rx="2" fill="#161b22"><title>2025-11-17: 0</title></rect>
<rect x="202" y="62" width="11" height="11" rx="2" fill="#161b22"><title>2025-11-18: 0</title></rect>
<rect x="202" y="76" width="11" height="11" rx="2" fill="#161b22"><title>2025-11-19: 0</title></rect>
<rect x="202" y="90" width="11" height="11" rx="2" fill="#161b22"><title>2025-11-20: 0</title></rect>
<rect x="202" y="104" width="11" height="11" rx="2" fill="#161b22"><title>2025-11-21: 0</title></rect>
<rect x="202" y="118" width="11" height="11" rx="2" fill="#161b22"><title>2025-11-22: 0</title></rect>
<rect x="216" y="34" width="11" height="11" rx="2" fill="#161b22"><title>2025-11-23: 0</title></rect>
<rect x="216" y="48" width="11" height="11" rx="2" fill="#161b22"><title>2025-11-24: 0</title></rect>
<rect x="216" y="62" width="11" height="11" rx="2" fill="#161b22"><title>2025-11-25: 0</title></rect>
<rect x="216" y="76" width="11" height="11" rx="2" fill="#161b22"><title>2025-11-26: 0</title></rect>
<rect x="216" y="90" width="11" height="11" rx="2" fill="#161b22"><title>2025-11-27: 0</title></rect>
<rect x="216" y="104" width="11" height="11" rx="2" fill="#161b22"><title>2025-11-28: 0</title></rect>
<rect x="216" y="118" width="11" height="11" rx="2" fill="#161b22"><title>2025-11-29: 0</title></rect>
<rect x="230" y="34" width="11" height="11" rx="2" fill="#161b22"><title>2025-11-30: 0</title></rect>
<rect x="230" y="48" width="11" height="11" rx="2" fill="#161b22"><title>2025-12-01: 0</title></rect>
<rect x="230" y="62" width="11" height="11" rx="2" fill="#161b22"><title>2025-12-02: 0</title></rect>
<rect x="230" y="76" width="11" height="11" rx="2" fill="#161b22"><title>2025-12-03: 0</title></rect>
<rect x="230" y="90" width="11" height="11" rx="2" fill="#161b22"><title>2025-12-04: 0</title></rect>
<rect x="230" y="104" width="11" height="11" rx="2" fill="#161b22"><title>2025-12-05: 0</title></rect>
<rect x="230" y="118" width="11" height="11" rx="2" fill="#161b22"><title>2025-12-06: 0</title></rect>
<rect x="244" y="34" width="11" height="11" rx="2" fill="#161b22"><title>2025-12-07: 0</title></rect>
<rect x="244" y="48" width="11" height="11" rx="2" fill="#161b22"><title>2025-12-08: 0</title></rect>
<rect x="244" y="62" width="11" height="11" rx="2" fill="#161b22"><title>2025-12-09: 0</title></rect>
<rect x="244" y="76" width="11" height="11" rx="2" fill="#161b22"><title>2025-12-10: 0</title></rect>
<rect x="244" y="90" width="11" height="11" rx="2" fill="#161b22"><title>2025-12-11: 0</title></rect>
<rect x="244" y="104" width="11" height="11" rx="2" fill="#161b22"><title>2025-12-12: 0</title></rect>
<rect x="244" y="118" width="11" height="11" rx="2" fill="#161b22"><title>2025-12-13: 0</title></rect>
<rect x="258" y="34" width="11" height="11" rx="2" fill="#161b22"><title>2025-12-14: 0</title></rect>
<rect x="258" y="48" width="11" height="11" rx="2" fill="#161b22"><title>2025-12-15: 0</title></rect>
<rect x="258" y="62" width="11" height="11" rx="2" fill="#161b22"><title>2025-12-16: 0</title></rect>
<rect x="258" y="76" width="11" height="11" rx="2" fill="#161b22"><title>2025-12-17: 0</title></rect>
<rect x="258" y="90" width="11" height="11" rx="2" fill="#161b22"><title>2025-12-18: 0</title></rect>
<rect x="258" y="104" width="11" height="11" rx="2" fill="#161b22"><title>2025-12-19: 0</title></rect>
<rect x="258" y="118" width="11" height="11" rx="2" fill="#161b22"><title>2025-12-20: 0</title></rect>
<rect x="272" y="34" width="11" height="11" rx="2" fill="#161b22"><title>2025-12-21: 0</title></rect>
<rect x="272" y="48" width="11" height="11" rx="2" fill="#161b22"><title>2025-12-22: 0</title></rect>
<rect x="272" y="62" width="11" height="11" rx="2" fill="#161b22"><title>2025-12-23: 0</title></rect>
<rect x="272" y="76" width="11" height="11" rx="2" fill="#161b22"><title>2025-12-24: 0</title></rect>
<rect x="272" y="90" width="11" height="11" rx="2" fill="#161b22"><title>2025-12-25: 0</title></rect>
<rect x="272" y="104" width="11" height="11" rx="2" fill="#161b22"><title>2025-12-26: 0</title></rect>
<rect x="272" y="118" width="11" height="11" rx="2" fill="#161b22"><title>2025-12-27: 0</title></rect>
<rect x="286" y="34" width="11" height="11" rx="2" fill="#161b22"><title>2025-12-28: 0</title></rect>
<rect x="286" y="48" width="11" height="11" rx="2" fill="#161b22"><title>2025-12-29: 0</title></rect>
<rect x="286" y="62" width="11" height="11" rx="2" fill="#161b22"><title>2025-12-30: 0</title></rect>
<rect x="286" y="76" width="11" height="11" rx="2" fill="#161b22"><title>2025-12-31: 0</title></rect>
<rect x="286" y="90" width="11" height="11" rx="2" fill="#161b22"><title>2026-01-01: 0</title></rect>
<rect x="286" y="104" width="11" height="11" rx="2" fill="#161b22"><title>2026-01-02: 0</title></rect>
<rect x="286" y="118" width="11" height="11" rx="2" fill="#161b22"><title>2026-01-03: 0</title></rect>
<rect x="300" y="34" width="11" height="11" rx="2" fill="#161b22"><title>2026-01-04: 0</title></rect>
<rect x="300" y="48" width="11" height="11" rx="2" fill="#161b22"><title>2026-01-05: 0</title></rect>
<rect x="300" y="62" width="11" height="11" rx="2" fill="#161b22"><title>2026-01-06: 0</title></rect>
<rect x="300" y="76" width="11" height="11" rx="2" fill="#161b22"><title>2026-01-07: 0</title></rect>
<rect x="300" y="90" width="11" height="11" rx="2" fill="#161b22"><title>2026-01-08: 0</title></rect>
<rect x="300" y="104" width="11" height="11" rx="2" fill="#161b22"><title>2026-01-09: 0</title></rect>
<rect x="300" y="118" width="11" height="11" rx="2" fill="#161b22"><title>2026-01-10: 0</title></rect>
<rect x="314" y="34" width="11" height="11" rx="2" fill="#161b22"><title>2026-01-11: 0</title></rect>
<rect x="314" y="48" width="11" height="11" rx="2" fill="#161b22"><title>2026-01-12: 0</title></rect>
<rect x="314" y="62" width="11" height="11" rx="2" fill="#161b22"><title>2026-01-13: 0</title></rect>
<rect x="314" y="76" width="11" height="11" rx="2" fill="#161b22"><title>2026-01-14: 0</title></rect>
<rect x="314" y="90" width="11" height="11" rx="2" fill="#161b22"><title>2026-01-15: 0</title></rect>
<rect x="314" y="104" width="11" height="11" rx="2" fill="#161b22"><title>2026-01-16: 0</title></rect>
<rect x="314" y="118" width="11" height="11" rx="2" fill="#161b22"><title>2026-01-17: 0</title></rect>
<rect x="328" y="34" width="11" height="11" rx="2" fill="#161b22"><title>2026-01-18: 0</title></rect>
<rect x="328" y="48" width="11" height="11" rx="2" fill="#161b22"><title>2026-01-19: 0</title></rect>
<rect x="328" y="62" width="11" height="11" rx="2" fill="#161b22"><title>2026-01-20: 0</title></rect>
<rect x="328" y="76" width="11" height="11" rx="2" fill="#161b22"><title>2026-01-21: 0</title></rect>
<rect x="328" y="90" width="11" height="11" rx="2" fill="#161b22"><title>2026-01-22: 0</title></rect>
<rect x="328" y="104" width="11" height="11" rx="2" fill="#161b22"><title>2026-01-23: 0</title></rect>
<rect x="328" y="118" width="11" height="11" rx="2" fill="#161b22"><title>2026-01-24: 0</title></rect>
<rect x="342" y="34" width="11" height="11" rx="2" fill="#161b22"><title>2026-01-25: 0</title></rect>
<rect x="342" y="48" width="11" height="11" rx="2" fill="#161b22"><title>2026-01-26: 0</title></rect>
<rect x="342" y="62" width="11" height="11" rx="2" fill="#161b22"><title>2026-01-27: 0</title></rect>
<rect x="342" y="76" width="11" height="11" rx="2" fill="#161b22"><title>2026-01-28: 0</title></rect>
<rect x="342" y="90" width="11" height="11" rx="2" fill="#161b22"><title>2026-01-29: 0</title></rect>
<rect x="342" y="104" width="11" height="11" rx="2" fill="#161b22"><title>2026-01-30: 0</title></rect>
<rect x="342" y="118" width="11" height="11" rx="2" fill="#161b22"><title>2026-01-31: 0</title></rect>
<rect x="356" y="34" width="11" height="11" rx="2" fill="#161b22"><title>2026-02-01: 0</title></rect>
<rect x="356" y="48" width="11" height="11" rx="2" fill="#161b22"><title>2026-02-02: 0</title></rect>
<rect x="356" y="62" width="11" height="11" rx="2" fill="#161b22"><title>2026-02-03: 0</title></rect>
<rect x="356" y="76" width="11" height="11" rx="2" fill="#161b22"><title>2026-02-04: 0</title></rect>
<rect x="356" y="90" width="11" height="11" rx="2" fill="#161b22"><title>2026-02-05: 0</title></rect>
<rect x="356" y="104" width="11" height="11" rx="2" fill="#161b22"><title>2026-02-06: 0</title></rect>
<rect x="356" y="118" width="11" height="11" rx="2" fill="#161b22"><title>2026-02-07: 0</title></rect>
<rect x="370" y="34" width="11" height="11" rx="2" fill="#161b22"><title>2026-02-08: 0</title></rect>
<rect x="370" y="48" width="11" height="11" rx="2" fill="#161b22"><title>2026-02-09: 0</title></rect>
<rect x="370" y="62" width="11" height="11" rx="2" fill="#161b22"><title>2026-02-10: 0</title></rect>
<rect x="370" y="76" width="11" height="11" rx="2" fill="#161b22"><title>2026-02-11: 0</title></rect>
<rect x="370" y="90" width="11" height="11" rx="2" fill="#161b22"><title>2026-02-12: 0</title></rect>
<rect x="370" y="104" width="11" height="11" rx="2" fill="#161b22"><title>2026-02-13: 0</title></rect>
<rect x="370" y="118" width="11" height="11" rx="2" fill="#161b22"><title>2026-02-14: 0</title></rect>
<rect x="384" y="34" width="11" height="11" rx="2" fill="#161b22"><title>2026-02-15: 0</title></rect>
<rect x="384" y="48" width="11" height="11" rx="2" fill="#161b22"><title>2026-02-16: 0</title></rect>
<rect x="384" y="62" width="11" height="11" rx="2" fill="#161b22"><title>2026-02-17: 0</title></rect>
<rect x="384" y="76" width="11" height="11" rx="2" fill="#161b22"><title>2026-02-18: 0</title></rect>
<rect x="384" y="90" width="11" height="11" rx="2" fill="#161b22"><title>2026-02-19: 0</title></rect>
<rect x="384" y="104" width="11" height="11" rx="2" fill="#161b22"><title>2026-02-20: 0</title></rect>
<rect x="384" y="118" width="11" height="11" rx="2" fill="#161b22"><title>2026-02-21: 0</title></rect>
<rect x="398" y="34" width="11" height="11" rx="2" fill="#161b22"><title>2026-02-22: 0</title></rect>
<rect x="398" y="48" width="11" height="11" rx="2" fill="#161b22"><title>2026-02-23: 0</title></rect>
<rect x="398" y="62" width="11" height="11" rx="2" fill="#161b22"><title>2026-02-24: 0</title></rect>
<rect x="398" y="76" width="11" height="11" rx="2" fill="#161b22"><title>2026-02-25: 0</title></rect>
<rect x="398" y="90" width="11" height="11" rx="2" fill="#161b22"><title>2026-02-26: 0</title></rect>
<rect x="398" y="104" width="11" height="11" rx="2" fill="#161b22"><title>2026-02-27: 0</title></rect>
<rect x="398" y="118" width="11" height="11" rx="2" fill="#161b22"><title>2026-02-28: 0</title></rect>
<rect x="412" y="34" width="11" height="11" rx="2" fill="#161b22"><title>2026-03-01: 0</title></rect>
<rect x="412" y="48" width="11" height="11" rx="2" fill="#161b22"><title>2026-03-02: 0</title></rect>
<rect x="412" y="62" width="11" height="11" rx="2" fill="#161b22"><title>2026-03-03: 0</title></rect>
<rect x="412" y="76" width="11" height="11" rx="2" fill="#161b22"><title>2026-03-04: 0</title></rect>
<rect x="412" y="90" width="11" height="11" rx="2" fill="#161b22"><title>2026-03-05: 0</title></rect>
<rect x="412" y="104" width="11" height="11" rx="2" fill="#161b22"><title>2026-03-06: 0</title></rect>
<rect x="412" y="118" width="11" height="11" rx="2" fill="#161b22"><title>2026-03-07: 0</title></rect>
<rect x="426" y="34" width="11" height="11" rx="2" fill="#161b22"><title>2026-03-08: 0</title></rect>
<rect x="426" y="48" width="11" height="11" rx="2" fill="#0e4429"><title>2026-03-09: 2</title></rect>
<rect x="426" y="62" width="11" height="11" rx="2" fill="#0e4429"><title>2026-03-10: 9</title></rect>
<rect x="426" y="76" width="11" height="11" rx="2" fill="#0e4429"><title>2026-03-11: 6</title></rect>
<rect x="426" y="90" width="11" height="11" rx="2" fill="#161b22"><title>2026-03-12: 0</title></rect>
<rect x="426" y="104" width="11" height="11" rx="2" fill="#0e4429"><title>2026-03-13: 5</title></rect>
<rect x="426" y="118" width="11" height="11" rx="2" fill="#0e4429"><title>2026-03-14: 1</title></rect>
<rect x="440" y="34" width="11" height="11" rx="2" fill="#161b22"><title>2026-03-15: 0</title></rect>
<rect x="440" y="48" width="11" height="11" rx="2" fill="#161b22"><title>2026-03-16: 0</title></rect>
<rect x="440" y="62" width="11" height="11" rx="2" fill="#161b22"><title>2026-03-17: 0</title></rect>
<rect x="440" y="76" width="11" height="11" rx="2" fill="#161b22"><title>2026-03-18: 0</title></rect>
<rect x="440" y="90" width="11" height="11" rx="2" fill="#161b22"><title>2026-03-19: 0</title></rect>
<rect x="440" y="104" width="11" height="11" rx="2" fill="#161b22"><title>2026-03-20: 0</title></rect>
<rect x="440" y="118" width="11" height="11" rx="2" fill="#161b22"><title>2026-03-21: 0</title></rect>
<rect x="454" y="34" width="11" height="11" rx="2" fill="#161b22"><title>2026-03-22: 0</title></rect>
<rect x="454" y="48" width="11" height="11" rx="2" fill="#0e4429"><title>2026-03-23: 1</title></rect>
<rect x="454" y="62" width="11" height="11" rx="2" fill="#161b22"><title>2026-03-24: 0</title></rect>
<rect x="454" y="76" width="11" height="11" rx="2" fill="#161b22"><title>2026-03-25: 0</title></rect>
<rect x="454" y="90" width="11" height="11" rx="2" fill="#161b22"><title>2026-03-26: 0</title></rect>
<rect x="454" y="104" width="11" height="11" rx="2" fill="#161b22"><title>2026-03-27: 0</title></rect>
<rect x="454" y="118" width="11" height="11" rx="2" fill="#161b22"><title>2026-03-28: 0</title></rect>
<rect x="468" y="34" width="11" height="11" rx="2" fill="#0e4429"><title>2026-03-29: 2</title></rect>
<rect x="468" y="48" width="11" height="11" rx="2" fill="#0e4429"><title>2026-03-30: 2</title></rect>
<rect x="468" y="62" width="11" height="11" rx="2" fill="#161b22"><title>2026-03-31: 0</title></rect>
<rect x="468" y="76" width="11" height="11" rx="2" fill="#161b22"><title>2026-04-01: 0</title></rect>
<rect x="468" y="90" width="11" height="11" rx="2" fill="#161b22"><title>2026-04-02: 0</title></rect>
<rect x="468" y="104" width="11" height="11" rx="2" fill="#161b22"><title>2026-04-03: 0</title></rect>
<rect x="468" y="118" width="11" height="11" rx="2" fill="#161b22"><title>2026-04-04: 0</title></rect>
<rect x="482" y="34" width="11" height="11" rx="2" fill="#161b22"><title>2026-04-05: 0</title></rect>
<rect x="482" y="48" width="11" height="11" rx="2" fill="#161b22"><title>2026-04-06: 0</title></rect>
<rect x="482" y="62" width="11" height="11" rx="2" fill="#161b22"><title>2026-04-07: 0</title></rect>
<rect x="482" y="76" width="11" height="11" rx="2" fill="#161b22"><title>2026-04-08: 0</title></rect>
<rect x="482" y="90" width="11" height="11" rx="2" fill="#161b22"><title>2026-04-09: 0</title></rect>
<rect x="482" y="104" width="11" height="11" rx="2" fill="#161b22"><title>2026-04-10: 0</title></rect>
<rect x="482" y="118" width="11" height="11" rx="2" fill="#161b22"><title>2026-04-11: 0</title></rect>
<rect x="496" y="34" width="11" height="11" rx="2" fill="#161b22"><title>2026-04-12: 0</title></rect>
<rect x="496" y="48" width="11" height="11" rx="2" fill="#161b22"><title>2026-04-13: 0</title></rect>
<rect x="496" y="62" width="11" height="11" rx="2" fill="#161b22"><title>2026-04-14: 0</title></rect>
<rect x="496" y="76" width="11" height="11" rx="2" fill="#161b22"><title>2026-04-15: 0</title></rect>
<rect x="496" y="90" width="11" height="11" rx="2" fill="#161b22"><title>2026-04-16: 0</title></rect>
<rect x="496" y="104" width="11" height="11" rx="2" fill="#161b22"><title>2026-04-17: 0</title></rect>
<rect x="496" y="118" width="11" height="11" rx="2" fill="#161b22"><title>2026-04-18: 0</title></rect>
<rect x="510" y="34" width="11" height="11" rx="2" fill="#161b22"><title>2026-04-19: 0</title></rect>
<rect x="510" y="48" width="11" height="11" rx="2" fill="#161b22"><title>2026-04-20: 0</title></rect>
<rect x="510" y="62" width="11" height="11" rx="2" fill="#161b22"><title>2026-04-21: 0</title></rect>
<rect x="510" y="76" width="11" height="11" rx="2" fill="#161b22"><title>2026-04-22: 0</title></rect>
<rect x="510" y="90" width="11" height="11" rx="2" fill="#161b22"><title>2026-04-23: 0</title></rect>
<rect x="510" y="104" width="11" height="11" rx="2" fill="#161b22"><title>2026-04-24: 0</title></rect>
<rect x="510" y="118" width="11" height="11" rx="2" fill="#161b22"><title>2026-04-25: 0</title></rect>
<rect x="524" y="34" width="11" height="11" rx="2" fill="#161b22"><title>2026-04-26: 0</title></rect>
<rect x="524" y="48" width="11" height="11" rx="2" fill="#161b22"><title>2026-04-27: 0</title></rect>
<rect x="524" y="62" width="11" height="11" rx="2" fill="#161b22"><title>2026-04-28: 0</title></rect>
<rect x="524" y="76" width="11" height="11" rx="2" fill="#161b22"><title>2026-04-29: 0</title></rect>
<rect x="524" y="90" width="11" height="11" rx="2" fill="#161b22"><title>2026-04-30: 0</title></rect>
<rect x="524" y="104" width="11" height="11" rx="2" fill="#161b22"><title>2026-05-01: 0</title></rect>
<rect x="524" y="118" width="11" height="11" rx="2" fill="#161b22"><title>2026-05-02: 0</title></rect>
<rect x="538" y="34" width="11" height="11" rx="2" fill="#161b22"><title>2026-05-03: 0</title></rect>
<rect x="538" y="48" width="11" height="11" rx="2" fill="#161b22"><title>2026-05-04: 0</title></rect>
<rect x="538" y="62" width="11" height="11" rx="2" fill="#161b22"><title>2026-05-05: 0</title></rect>
<rect x="538" y="76" width="11" height="11" rx="2" fill="#161b22"><title>2026-05-06: 0</title></rect>
<rect x="538" y="90" width="11" height="11" rx="2" fill="#0e4429"><title>2026-05-07: 2</title></rect>
<rect x="538" y="104" width="11" height="11" rx="2" fill="#161b22"><title>2026-05-08: 0</title></rect>
<rect x="538" y="118" width="11" height="11" rx="2" fill="#161b22"><title>2026-05-09: 0</title></rect>
<rect x="552" y="34" width="11" height="11" rx="2" fill="#0e4429"><title>2026-05-10: 1</title></rect>
<rect x="552" y="48" width="11" height="11" rx="2" fill="#161b22"><title>2026-05-11: 0</title></rect>
<rect x="552" y="62" width="11" height="11" rx="2" fill="#161b22"><title>2026-05-12: 0</title></rect>
<rect x="552" y="76" width="11" height="11" rx="2" fill="#161b22"><title>2026-05-13: 0</title></rect>
<rect x="552" y="90" width="11" height="11" rx="2" fill="#161b22"><title>2026-05-14: 0</title></rect>
<rect x="552" y="104" width="11" height="11" rx="2" fill="#161b22"><title>2026-05-15: 0</title></rect>
<rect x="552" y="118" width="11" height="11" rx="2" fill="#161b22"><title>2026-05-16: 0</title></rect>
<rect x="566" y="34" width="11" height="11" rx="2" fill="#161b22"><title>2026-05-17: 0</title></rect>
<rect x="566" y="48" width="11" height="11" rx="2" fill="#161b22"><title>2026-05-18: 0</title></rect>
<rect x="566" y="62" width="11" height="11" rx="2" fill="#0e4429"><title>2026-05-19: 4</title></rect>
<rect x="566" y="76" width="11" height="11" rx="2" fill="#0e4429"><title>2026-05-20: 5</title></rect>
<rect x="566" y="90" width="11" height="11" rx="2" fill="#0e4429"><title>2026-05-21: 2</title></rect>
<rect x="566" y="104" width="11" height="11" rx="2" fill="#161b22"><title>2026-05-22: 0</title></rect>
<rect x="566" y="118" width="11" height="11" rx="2" fill="#0e4429"><title>2026-05-23: 1</title></rect>
<rect x="580" y="34" width="11" height="11" rx="2" fill="#0e4429"><title>2026-05-24: 1</title></rect>
<rect x="580" y="48" width="11" height="11" rx="2" fill="#161b22"><title>2026-05-25: 0</title></rect>
<rect x="580" y="62" width="11" height="11" rx="2" fill="#161b22"><title>2026-05-26: 0</title></rect>
<rect x="580" y="76" width="11" height="11" rx="2" fill="#26a641"><title>2026-05-27: 23</title></rect>
<rect x="580" y="90" width="11" height="11" rx="2" fill="#0e4429"><title>2026-05-28: 9</title></rect>
<rect x="580" y="104" width="11" height="11" rx="2" fill="#39d353"><title>2026-05-29: 35</title></rect>
<rect x="580" y="118" width="11" height="11" rx="2" fill="#0e4429"><title>2026-05-30: 1</title></rect>
<rect x="594" y="34" width="11" height="11" rx="2" fill="#161b22"><title>2026-05-31: 0</title></rect>
<rect x="594" y="48" width="11" height="11" rx="2" fill="#0e4429"><title>2026-06-01: 1</title></rect>
<rect x="594" y="62" width="11" height="11" rx="2" fill="#161b22"><title>2026-06-02: 0</title></rect>
<rect x="594" y="76" width="11" height="11" rx="2" fill="#161b22"><title>2026-06-03: 0</title></rect>
<rect x="594" y="90" width="11" height="11" rx="2" fill="#161b22"><title>2026-06-04: 0</title></rect>
<rect x="594" y="104" width="11" height="11" rx="2" fill="#161b22"><title>2026-06-05: 0</title></rect>
<rect x="594" y="118" width="11" height="11" rx="2" fill="#161b22"><title>2026-06-06: 0</title></rect>
<rect x="608" y="34" width="11" height="11" rx="2" fill="#006d32"><title>2026-06-07: 16</title></rect>
<rect x="608" y="48" width="11" height="11" rx="2" fill="#0e4429"><title>2026-06-08: 7</title></rect>
<rect x="608" y="62" width="11" height="11" rx="2" fill="#161b22"><title>2026-06-09: 0</title></rect>
<rect x="608" y="76" width="11" height="11" rx="2" fill="#161b22"><title>2026-06-10: 0</title></rect>
<rect x="608" y="90" width="11" height="11" rx="2" fill="#161b22"><title>2026-06-11: 0</title></rect>
<rect x="608" y="104" width="11" height="11" rx="2" fill="#161b22"><title>2026-06-12: 0</title></rect>
<rect x="608" y="118" width="11" height="11" rx="2" fill="#161b22"><title>2026-06-13: 0</title></rect>
<rect x="622" y="34" width="11" height="11" rx="2" fill="#0e4429"><title>2026-06-14: 8</title></rect>
<rect x="622" y="48" width="11" height="11" rx="2" fill="#006d32"><title>2026-06-15: 11</title></rect>
<rect x="622" y="62" width="11" height="11" rx="2" fill="#0e4429"><title>2026-06-16: 6</title></rect>
<rect x="622" y="76" width="11" height="11" rx="2" fill="#161b22"><title>2026-06-17: 0</title></rect>
<rect x="622" y="90" width="11" height="11" rx="2" fill="#161b22"><title>2026-06-18: 0</title></rect>
<rect x="622" y="104" width="11" height="11" rx="2" fill="#161b22"><title>2026-06-19: 0</title></rect>
<rect x="622" y="118" width="11" height="11" rx="2" fill="#161b22"><title>2026-06-20: 0</title></rect>
<rect x="636" y="34" width="11" height="11" rx="2" fill="#161b22"><title>2026-06-21: 0</title></rect>
<rect x="636" y="48" width="11" height="11" rx="2" fill="#161b22"><title>2026-06-22: 0</title></rect>
<rect x="636" y="62" width="11" height="11" rx="2" fill="#161b22"><title>2026-06-23: 0</title></rect>
<rect x="636" y="76" width="11" height="11" rx="2" fill="#161b22"><title>2026-06-24: 0</title></rect>
<rect x="636" y="90" width="11" height="11" rx="2" fill="#161b22"><title>2026-06-25: 0</title></rect>
<rect x="636" y="104" width="11" height="11" rx="2" fill="#161b22"><title>2026-06-26: 0</title></rect>
<rect x="636" y="118" width="11" height="11" rx="2" fill="#161b22"><title>2026-06-27: 0</title></rect>
<rect x="650" y="34" width="11" height="11" rx="2" fill="#0e4429"><title>2026-06-28: 9</title></rect>
<rect x="650" y="48" width="11" height="11" rx="2" fill="#161b22"><title>2026-06-29: 0</title></rect>
<rect x="650" y="62" width="11" height="11" rx="2" fill="#161b22"><title>2026-06-30: 0</title></rect>
<rect x="650" y="76" width="11" height="11" rx="2" fill="#161b22"><title>2026-07-01: 0</title></rect>
<rect x="650" y="90" width="11" height="11" rx="2" fill="#161b22"><title>2026-07-02: 0</title></rect>
<rect x="650" y="104" width="11" height="11" rx="2" fill="#161b22"><title>2026-07-03: 0</title></rect>
<rect x="650" y="118" width="11" height="11" rx="2" fill="#161b22"><title>2026-07-04: 0</title></rect>
<rect x="664" y="34" width="11" height="11" rx="2" fill="#161b22"><title>2026-07-05: 0</title></rect>
<rect x="664" y="48" width="11" height="11" rx="2" fill="#161b22"><title>2026-07-06: 0</title></rect>
<rect x="664" y="62" width="11" height="11" rx="2" fill="#161b22"><title>2026-07-07: 0</title></rect>
<rect x="664" y="76" width="11" height="11" rx="2" fill="#161b22"><title>2026-07-08: 0</title></rect>
<rect x="664" y="90" width="11" height="11" rx="2" fill="#161b22"><title>2026-07-09: 0</title></rect>
<rect x="664" y="104" width="11" height="11" rx="2" fill="#161b22"><title>2026-07-10: 0</title></rect>
<rect x="664" y="118" width="11" height="11" rx="2" fill="#0e4429"><title>2026-07-11: 2</title></rect>
<rect x="678" y="34" width="11" height="11" rx="2" fill="#161b22"><title>2026-07-12: 0</title></rect>
<rect x="678" y="48" width="11" height="11" rx="2" fill="#161b22"><title>2026-07-13: 0</title></rect>
<rect x="678" y="62" width="11" height="11" rx="2" fill="#161b22"><title>2026-07-14: 0</title></rect>
<rect x="678" y="76" width="11" height="11" rx="2" fill="#161b22"><title>2026-07-15: 0</title></rect>
<rect x="678" y="90" width="11" height="11" rx="2" fill="#161b22"><title>2026-07-16: 0</title></rect>
<rect x="678" y="104" width="11" height="11" rx="2" fill="#161b22"><title>2026-07-17: 0</title></rect>
<rect x="678" y="118" width="11" height="11" rx="2" fill="#161b22"><title>2026-07-18: 0</title></rect>
<rect x="692" y="34" width="11" height="11" rx="2" fill="#161b22"><title>2026-07-19: 0</title></rect>
<rect x="692" y="48" width="11" height="11" rx="2" fill="#161b22"><title>2026-07-20: 0</title></rect>
<rect x="692" y="62" width="11" height="11" rx="2" fill="#161b22"><title>2026-07-21: 0</title></rect>
<rect x="692" y="76" width="11" height="11" rx="2" fill="#0e4429"><title>2026-07-22: 3</title></rect>
<rect x="692" y="90" width="11" height="11" rx="2" fill="#0e4429"><title>2026-07-23: 1</title></rect>
<rect x="692" y="104" width="11" height="11" rx="2" fill="#161b22"><title>2026-07-24: 0</title></rect>
<rect x="692" y="118" width="11" height="11" rx="2" fill="#006d32"><title>2026-07-25: 16</title></rect>
<rect x="706" y="34" width="11" height="11" rx="2" fill="#0e4429"><title>2026-07-26: 4</title></rect>
<rect x="706" y="48" width="11" height="11" rx="2" fill="#0e4429"><title>2026-07-27: 4</title></rect>
<rect x="706" y="62" width="11" height="11" rx="2" fill="#0e4429"><title>2026-07-28: 1</title></rect>
<rect x="706" y="76" width="11" height="11" rx="2" fill="#161b22"><title>2026-07-29: 0</title></rect>
<rect x="706" y="90" width="11" height="11" rx="2" fill="#161b22"><title>2026-07-30: 0</title></rect>
<rect x="706" y="104" width="11" height="11" rx="2" fill="#161b22"><title>2026-07-31: 0</title></rect>
<rect x="706" y="118" width="11" height="11" rx="2" fill="#0e4429"><title>2026-08-01: 3</title></rect>
<rect x="720" y="34" width="11" height="11" rx="2" fill="#39d353"><title>2026-08-02: 34</title></rect>
<rect x="720" y="48" width="11" height="11" rx="2" fill="#161b22"><title>2026-08-03: 0</title></rect>
<rect x="720" y="62" width="11" height="11" rx="2" fill="#161b22"><title>2026-08-04: 0</title></rect>
<rect x="720" y="76" width="11" height="11" rx="2" fill="#0e4429"><title>2026-08-05: 4</title></rect>
<rect x="720" y="90" width="11" height="11" rx="2" fill="#0e4429"><title>2026-08-06: 5</title></rect>
<rect x="720" y="104" width="11" height="11" rx="2" fill="#0e4429"><title>2026-08-07: 1</title></rect>
<rect x="720" y="118" width="11" height="11" rx="2" fill="#26a641"><title>2026-08-08: 19</title></rect>
<rect x="734" y="34" width="11" height="11" rx="2" fill="#0e4429"><title>2026-08-09: 5</title></rect>
<rect x="734" y="48" width="11" height="11" rx="2" fill="#006d32"><title>2026-08-10: 13</title></rect>
<rect x="734" y="62" width="11" height="11" rx="2" fill="#161b22"><title>2026-08-11: 0</title></rect>
<rect x="734" y="76" width="11" height="11" rx="2" fill="#161b22"><title>2026-08-12: 0</title></rect>
<rect x="734" y="90" width="11" height="11" rx="2" fill="#161b22"><title>2026-08-13: 0</title></rect>
<rect x="734" y="104" width="11" height="11" rx="2" fill="#161b22"><title>2026-08-14: 0</title></rect>
<rect x="734" y="118" width="11" height="11" rx="2" fill="#006d32"><title>2026-08-15: 10</title></rect>
<rect x="748" y="34" width="11" height="11" rx="2" fill="#0e4429"><title>2026-08-16: 4</title></rect>
<rect x="748" y="48" width="11" height="11" rx="2" fill="#0e4429"><title>2026-08-17: 2</title></rect>
<rect x="748" y="62" width="11" height="11" rx="2" fill="#0e4429"><title>2026-08-18: 3</title></rect>
<rect x="748" y="76" width="11" height="11" rx="2" fill="#161b22"><title>2026-08-19: 0</title></rect>
<rect x="748" y="90" width="11" height="11" rx="2" fill="#161b22"><title>2026-08-20: 0</title></rect>
<rect x="748" y="104" width="11" height="11" rx="2" fill="#161b22"><title>2026-08-21: 0</title></rect>
<rect x="748" y="118" width="11" height="11" rx="2" fill="#0e4429"><title>2026-08-22: 8</title></rect>
<rect x="762" y="34" width="11" height="11" rx="2" fill="#39d353"><title>2026-08-23: 31</title></rect>
<rect x="762" y="48" width="11" height="11" rx="2" fill="#161b22"><title>2026-08-24: 0</title></rect>
<text class="lg" x="0" y="157">2d current streak</text>
<text class="lg" x="120" y="157">6d longest streak</text>
<text class="lg" x="648" y="157">Less</text>
<rect x="678" y="148" width="11" height="11" rx="2" fill="#161b22"/>
<rect x="692" y="148" width="11" height="11" rx="2" fill="#0e4429"/>
<rect x="706" y="148" width="11" height="11" rx="2" fill="#006d32"/>
<rect x="720" y="148" width="11" height="11" rx="2" fill="#26a641"/>
<rect x="734" y="148" width="11" height="11" rx="2" fill="#39d353"/>
<text class="lg" x="752" y="157">More</text>
</svg>
